<svg xmlns="http://www.w3.org/2000/svg" xmlns:xlink="http://www.w3.org/1999/xlink" contentStyleType="text/css" data-diagram-type="ACTIVITY" height="476px" preserveAspectRatio="none" style="width:679px;height:476px;background:#FFFFFF;" version="1.1" viewBox="0 0 679 476" width="679px" zoomAndPan="magnify"><defs/><g><ellipse cx="162.2461" cy="20" fill="#222222" rx="10" ry="10" style="stroke:#222222;stroke-width:1;"/><rect fill="#F1F1F1" height="33.9688" rx="12.5" ry="12.5" style="stroke:#000000;stroke-width:0.5;" width="142.5844" x="90.9539" y="50"/><text fill="#000000" font-family="sans-serif" font-size="12" lengthAdjust="spacing" textLength="122.5844" x="100.9539" y="71.1387">&#36755;&#20837;&#25991;&#26412; (Input Text)</text><rect fill="#F1F1F1" height="47.9375" rx="12.5" ry="12.5" style="stroke:#000000;stroke-width:0.5;" width="302.4922" x="11" y="103.9688"/><text fill="#000000" font-family="sans-serif" font-size="12" lengthAdjust="spacing" textLength="116.2506" x="21" y="125.1074">1. &#35789;&#23884;&#20837; &amp; &#20301;&#32622;&#32534;&#30721;</text><text fill="#000000" font-family="sans-serif" font-size="12" lengthAdjust="spacing" textLength="282.4922" x="21" y="139.0762">(Embeddings &amp; Positional Encoding) &#171;process&#187;</text><path d="M302.9268,183.3086 L302.9268,191.875 L282.9268,195.875 L302.9268,199.875 L302.9268,208.4414 A0,0 0 0 0 302.9268,208.4414 L455.6089,208.4414 A0,0 0 0 0 455.6089,208.4414 L455.6089,193.3086 L445.6089,183.3086 L302.9268,183.3086 A0,0 0 0 0 302.9268,183.3086" fill="#FEFFDD" style="stroke:#181818;stroke-width:0.5;"/><path d="M445.6089,183.3086 L445.6089,193.3086 L455.6089,193.3086 L445.6089,183.3086" fill="#FEFFDD" style="stroke:#181818;stroke-width:0.5;"/><text fill="#000000" font-family="sans-serif" font-size="13" font-weight="bold" lengthAdjust="spacing" textLength="26" x="308.9268" y="200.3755">&#36755;&#20986;</text><text fill="#000000" font-family="sans-serif" font-size="13" lengthAdjust="spacing" textLength="105.6822" x="334.9268" y="200.3755">: &#29305;&#24449; (Features)</text><rect fill="#F1F1F1" height="47.9375" rx="12.5" ry="12.5" style="stroke:#000000;stroke-width:0.5;" width="241.3613" x="41.5654" y="171.9063"/><text fill="#000000" font-family="sans-serif" font-size="12" lengthAdjust="spacing" textLength="181.1022" x="51.5654" y="193.0449">2. Transformer &#32534;&#30721;&#22120;/&#35299;&#30721;&#22120;&#23618;</text><text fill="#000000" font-family="sans-serif" font-size="12" lengthAdjust="spacing" textLength="221.3613" x="51.5654" y="207.0137">(Encoder/Decoder Layers) &#171;process&#187;</text><path d="M266.6484,251.2461 L266.6484,259.8125 L246.6484,263.8125 L266.6484,267.8125 L266.6484,276.3789 A0,0 0 0 0 266.6484,276.3789 L361.0909,276.3789 A0,0 0 0 0 361.0909,276.3789 L361.0909,261.2461 L351.0909,251.2461 L266.6484,251.2461 A0,0 0 0 0 266.6484,251.2461" fill="#FEFFDD" style="stroke:#181818;stroke-width:0.5;"/><path d="M351.0909,251.2461 L351.0909,261.2461 L361.0909,261.2461 L351.0909,251.2461" fill="#FEFFDD" style="stroke:#181818;stroke-width:0.5;"/><text fill="#000000" font-family="sans-serif" font-size="13" font-weight="bold" lengthAdjust="spacing" textLength="26" x="272.6484" y="268.313">&#36755;&#20986;</text><text fill="#000000" font-family="sans-serif" font-size="13" lengthAdjust="spacing" textLength="47.4424" x="298.6485" y="268.313">: Logits</text><rect fill="#F1F1F1" height="47.9375" rx="12.5" ry="12.5" style="stroke:#000000;stroke-width:0.5;" width="168.8047" x="77.8438" y="239.8438"/><text fill="#000000" font-family="sans-serif" font-size="12" lengthAdjust="spacing" textLength="103.3073" x="87.8438" y="260.9824">3. &#32447;&#24615;&#23618;/&#20840;&#36830;&#25509;&#23618;</text><text fill="#000000" font-family="sans-serif" font-size="12" lengthAdjust="spacing" textLength="148.8047" x="87.8438" y="274.9512">(Linear Layer) &#171;process&#187;</text><path d="M280.7988,319.1836 L280.7988,327.75 L260.7988,331.75 L280.7988,335.75 L280.7988,344.3164 A0,0 0 0 0 280.7988,344.3164 L456.5103,344.3164 A0,0 0 0 0 456.5103,344.3164 L456.5103,329.1836 L446.5103,319.1836 L280.7988,319.1836 A0,0 0 0 0 280.7988,319.1836" fill="#FEFFDD" style="stroke:#181818;stroke-width:0.5;"/><path d="M446.5103,319.1836 L446.5103,329.1836 L456.5103,329.1836 L446.5103,319.1836" fill="#FEFFDD" style="stroke:#181818;stroke-width:0.5;"/><text fill="#000000" font-family="sans-serif" font-size="13" font-weight="bold" lengthAdjust="spacing" textLength="26" x="286.7988" y="336.2505">&#36755;&#20986;</text><text fill="#000000" font-family="sans-serif" font-size="13" lengthAdjust="spacing" textLength="128.7115" x="312.7989" y="336.2505">: &#27010;&#29575; (Probabilities)</text><rect fill="#F1F1F1" height="47.9375" rx="12.5" ry="12.5" style="stroke:#000000;stroke-width:0.5;" width="197.1055" x="63.6934" y="307.7813"/><text fill="#000000" font-family="sans-serif" font-size="12" lengthAdjust="spacing" textLength="93.1115" x="73.6934" y="328.9199">4. Softmax &#20989;&#25968;</text><text fill="#000000" font-family="sans-serif" font-size="12" lengthAdjust="spacing" textLength="177.1055" x="73.6934" y="342.8887">(Softmax function) &#171;process&#187;</text><path d="M322.9541,387.1211 L322.9541,395.6875 L302.9541,399.6875 L322.9541,403.6875 L322.9541,412.2539 A0,0 0 0 0 322.9541,412.2539 L667.2213,412.2539 A0,0 0 0 0 667.2213,412.2539 L667.2213,397.1211 L657.2213,387.1211 L322.9541,387.1211 A0,0 0 0 0 322.9541,387.1211" fill="#FEFFDD" style="stroke:#181818;stroke-width:0.5;"/><path d="M657.2213,387.1211 L657.2213,397.1211 L667.2213,397.1211 L657.2213,387.1211" fill="#FEFFDD" style="stroke:#181818;stroke-width:0.5;"/><text fill="#000000" font-family="sans-serif" font-size="13" font-weight="bold" lengthAdjust="spacing" textLength="26" x="328.9541" y="404.188">&#36755;&#20986;</text><text fill="#000000" font-family="sans-serif" font-size="13" lengthAdjust="spacing" textLength="297.2672" x="354.9541" y="404.188">: &#26368;&#32456;&#39044;&#27979; &amp; &#32622;&#20449;&#24230;\n(Prediction &amp; Confidence)</text><rect fill="#F1F1F1" height="47.9375" rx="12.5" ry="12.5" style="stroke:#000000;stroke-width:0.5;" width="281.416" x="21.5381" y="375.7188"/><text fill="#000000" font-family="sans-serif" font-size="12" lengthAdjust="spacing" textLength="87.2642" x="31.5381" y="396.8574">5. &#21462;&#26368;&#22823;&#27010;&#29575;&#20540;</text><text fill="#000000" font-family="sans-serif" font-size="12" lengthAdjust="spacing" textLength="261.416" x="31.5381" y="410.8262">(Take the max probability value) &#171;process&#187;</text><ellipse cx="162.2461" cy="454.6563" fill="none" rx="11" ry="11" style="stroke:#222222;stroke-width:1;"/><ellipse cx="162.2461" cy="454.6563" fill="#222222" rx="6" ry="6" style="stroke:#222222;stroke-width:1;"/><line style="stroke:#000000;stroke-width:1;" x1="162.2461" x2="162.2461" y1="30" y2="50"/><polygon fill="#000000" points="158.2461,40,162.2461,50,166.2461,40,162.2461,44" style="stroke:#000000;stroke-width:1;"/><line style="stroke:#000000;stroke-width:1;" x1="162.2461" x2="162.2461" y1="83.9688" y2="103.9688"/><polygon fill="#000000" points="158.2461,93.9688,162.2461,103.9688,166.2461,93.9688,162.2461,97.9688" style="stroke:#000000;stroke-width:1;"/><line style="stroke:#000000;stroke-width:1;" x1="162.2461" x2="162.2461" y1="151.9063" y2="171.9063"/><polygon fill="#000000" points="158.2461,161.9063,162.2461,171.9063,166.2461,161.9063,162.2461,165.9063" style="stroke:#000000;stroke-width:1;"/><line style="stroke:#000000;stroke-width:1;" x1="162.2461" x2="162.2461" y1="219.8438" y2="239.8438"/><polygon fill="#000000" points="158.2461,229.8438,162.2461,239.8438,166.2461,229.8438,162.2461,233.8438" style="stroke:#000000;stroke-width:1;"/><line style="stroke:#000000;stroke-width:1;" x1="162.2461" x2="162.2461" y1="287.7813" y2="307.7813"/><polygon fill="#000000" points="158.2461,297.7813,162.2461,307.7813,166.2461,297.7813,162.2461,301.7813" style="stroke:#000000;stroke-width:1;"/><line style="stroke:#000000;stroke-width:1;" x1="162.2461" x2="162.2461" y1="355.7188" y2="375.7188"/><polygon fill="#000000" points="158.2461,365.7188,162.2461,375.7188,166.2461,365.7188,162.2461,369.7188" style="stroke:#000000;stroke-width:1;"/><line style="stroke:#000000;stroke-width:1;" x1="162.2461" x2="162.2461" y1="423.6563" y2="443.6563"/><polygon fill="#000000" points="158.2461,433.6563,162.2461,443.6563,166.2461,433.6563,162.2461,437.6563" style="stroke:#000000;stroke-width:1;"/><!--SRC=[bL9DQrD15Ds_Nt5NacnUy6jJGw2jLOGi0WRSk9dttaqov6NcSMTURH0XBPOesdPH6X22gFr85-B7eWjZq_oPpdlnNpWlKGd1JLPtEFVCEVVS6TNa8cB4Mi1ypJUvRiDp1s2LI3vRbw4aM0kPtxJGcgG0QG6pfKuo5i4KBnOZaZugLIh1amRN-3-AZ7KKQyieytf3FoHiEoySHsb6sd5M9bU7PlSqwNMJ_cV8FHAM2bNSqlbxjddJXSdNFNFnrbBW1boFzjBHb_IobtxOVYfo6oqFWu2BkhAzYbHSSobO21l2bncSXxdvChbRBbI92LMJr4A2cP1vTrwO38vd9_Dz9nFE190Azt5QeSpQI6f1JaYDG5aa6xhebR8WtM6nu9LM87tzmrnjG-u1CXqJgho38e3iXftYjWlfS9nq1jQiO7RF9-FtoVxfpBdC1R8_XalubMMTQpLlSiU5nxAcMsmBJ7UK77spud-1MYpyR5LB62HdE-b-5t8LaXxpU6XNlP3ghWlce9VqE-PaC6ERpgKrhR8cWcuWPCxHl-jjs6HXZCkCqE-aFr_z-lGokNXZtzj-XElnHpCyinuLme1F8zd6kXGr7g3mSNu-fMNq6m00]--></g></svg>